<svg xmlns="http://www.w3.org/2000/svg" viewBox="0 0 512 512" width="512" height="512">
  <defs>
    <linearGradient id="bg" x1="0%" y1="0%" x2="100%" y2="100%">
      <stop offset="0%" stop-color="#1a1a2e"/>
      <stop offset="100%" stop-color="#16213e"/>
    </linearGradient>
    <linearGradient id="dragon" x1="0%" y1="0%" x2="100%" y2="100%">
      <stop offset="0%" stop-color="#c9a227"/>
      <stop offset="100%" stop-color="#8b6914"/>
    </linearGradient>
  </defs>
  <!-- Background -->
  <rect width="512" height="512" rx="108" fill="url(#bg)"/>
  <!-- Glow behind dragon -->
  <circle cx="256" cy="240" r="180" fill="#c9a227" opacity="0.08"/>
  <!-- D20 outline -->
  <polygon points="256,60 440,165 440,355 256,460 72,355 72,165" fill="none" stroke="#c9a227" stroke-width="5" opacity="0.2"/>
  <!-- Dragon head silhouette -->
  <path d="M256 110 C210 110 172 148 165 190 C158 232 178 268 200 288 L200 310 C200 338 225 365 256 378 C287 365 312 338 312 310 L312 288 C334 268 354 232 347 190 C340 148 302 110 256 110Z" fill="url(#dragon)"/>
  <!-- Dragon eyes -->
  <ellipse cx="226" cy="215" rx="14" ry="18" fill="#1a1a2e"/>
  <ellipse cx="286" cy="215" rx="14" ry="18" fill="#1a1a2e"/>
  <ellipse cx="226" cy="210" rx="7" ry="9" fill="#ff4444"/>
  <ellipse cx="286" cy="210" rx="7" ry="9" fill="#ff4444"/>
  <!-- Horns -->
  <path d="M200 165 C185 125 158 85 142 55 C155 90 170 130 185 155Z" fill="url(#dragon)"/>
  <path d="M312 165 C327 125 354 85 370 55 C357 90 342 130 327 155Z" fill="url(#dragon)"/>
  <!-- Snout/nostrils -->
  <circle cx="242" cy="295" r="7" fill="#1a1a2e" opacity="0.6"/>
  <circle cx="270" cy="295" r="7" fill="#1a1a2e" opacity="0.6"/>
  <!-- D&D text -->
  <text x="256" y="460" text-anchor="middle" font-size="52" font-family="serif" font-weight="700" fill="#c9a227" opacity="0.9">D&amp;D</text>
</svg>
